<svg xmlns="http://www.w3.org/2000/svg" width="1400" height="760" viewBox="0 0 1400 760">
  <defs>
    <linearGradient id="bg" x1="0" x2="1" y1="0" y2="1">
      <stop offset="0%" stop-color="#08101d"/>
      <stop offset="100%" stop-color="#182a44"/>
    </linearGradient>
  </defs>
  <rect width="1400" height="760" fill="url(#bg)"/>
  <rect x="26" y="62" width="290" height="670" rx="14" fill="#13243a" stroke="#2a3f5f"/>
  <rect x="336" y="62" width="1038" height="670" rx="14" fill="#172940" stroke="#2a3f5f"/>
  <text x="56" y="42" fill="#ffffff" font-family="Segoe UI, Arial" font-size="42" font-weight="700">Codex Chat</text>
  <text x="54" y="108" fill="#ffffff" font-family="Segoe UI, Arial" font-size="30" font-weight="700">Chats</text>
  <rect x="50" y="190" width="266" height="74" rx="12" fill="#183150" stroke="#4ab5f8"/>
  <rect x="50" y="272" width="266" height="74" rx="12" fill="#102237" stroke="#2f4f78"/>
  <rect x="50" y="354" width="266" height="74" rx="12" fill="#102237" stroke="#2f4f78"/>
  <text x="62" y="233" fill="#ffffff" font-family="Segoe UI, Arial" font-size="28" font-weight="700">coding</text>
  <text x="62" y="315" fill="#ffffff" font-family="Segoe UI, Arial" font-size="28" font-weight="700">hi</text>
  <text x="62" y="397" fill="#ffffff" font-family="Segoe UI, Arial" font-size="28" font-weight="700">Chat 1</text>
  <text x="354" y="116" fill="#ffffff" font-family="Segoe UI, Arial" font-size="40" font-weight="700">Multi Chat + Metrics</text>
  <rect x="356" y="136" width="188" height="34" rx="14" fill="#1f3a5a"/>
  <rect x="552" y="136" width="188" height="34" rx="14" fill="#1f3a5a"/>
  <rect x="748" y="136" width="188" height="34" rx="14" fill="#1f3a5a"/>
  <rect x="944" y="136" width="188" height="34" rx="14" fill="#1f3a5a"/>
  <text x="370" y="158" fill="#9fc4ea" font-family="Segoe UI, Arial" font-size="18">Model: gpt-5.4</text>
  <text x="564" y="158" fill="#9fc4ea" font-family="Segoe UI, Arial" font-size="18">Reasoning: default</text>
  <text x="760" y="158" fill="#9fc4ea" font-family="Segoe UI, Arial" font-size="18">Context: 272000</text>
  <text x="957" y="158" fill="#9fc4ea" font-family="Segoe UI, Arial" font-size="18">Remaining: unknown</text>
  <rect x="356" y="190" width="998" height="360" rx="12" fill="#19314e" stroke="#34567d"/>
  <rect x="356" y="576" width="998" height="112" rx="10" fill="#12243b" stroke="#2f5078"/>
</svg>
